<svg  viewBox="0 0 900 142" fill="none" xmlns="http://www.w3.org/2000/svg">
<path d="M94.6667 89.4074V101.241H59.1667V136.741H35.5V42.0741H94.6667V53.9074H106.5V89.4074H94.6667Z" fill="#C1B9F5"/>
<path d="M165.667 42.0741V53.9074V89.4074V113.074V136.741H142V42.0741H165.667Z" fill="#C1B9F5"/>
<path d="M236.667 53.9074V65.7407H248.5V53.9074H260.333V42.0741H284V65.7407H272.167V77.5741H260.333V101.241H272.167V113.074H284V136.741H260.333V124.907H248.5H236.667H224.833V136.741H201.167V113.074H213V101.241H224.833V77.5741H213V65.7407H201.167V42.0741H224.833V53.9074H236.667Z" fill="#C1B9F5"/>
<path d="M426 124.907V136.741H402.333V124.907H390.5V101.241H378.667V42.0741H402.333V101.241H426V42.0741H449.667V101.241H437.833V124.907H426Z" fill="#C1B9F5"/>
<path d="M508.833 101.241V113.074H556.167V136.741H485.167V42.0741H556.167V65.7407H508.833V77.5741H556.167V101.241H508.833Z" fill="#C1B9F5"/>
<path d="M650.833 124.907H639V113.074H627.167V101.241H615.333V136.741H591.667V42.0741H662.667V53.9074H674.5V77.5741H662.667V89.4074H650.833V101.241H662.667V113.074H674.5V136.741H650.833V124.907Z" fill="#C1B9F5"/>
<path d="M769.167 124.907V136.741H710V113.074H745.5V101.241H733.667V89.4074H721.833V77.5741H710V53.9074H721.833V42.0741H781V65.7407H745.5V77.5741H757.333V89.4074H769.167V101.241H781V113.074V124.907H769.167Z" fill="#C1B9F5"/>
<path d="M887.5 65.7407V77.5741V101.241V113.074V136.741H816.5V42.0741H887.5V65.7407Z" fill="#C1B9F5"/>
<path d="M343.167 136.741H319.5V42.0741H343.167V77.5741V136.741Z" fill="#C1B9F5"/>
<path d="M875.667 130.167H887.5V142H875.667H863.833H852H840.167H828.333H816.5V130.167H828.333H840.167H852H863.833H875.667ZM887.5 130.167V118.333V106.5H899.333V118.333V130.167H887.5ZM816.5 130.167H804.667V118.333H792.833V106.5H781V94.6667V82.8333V71V59.1667V47.3333V35.5V23.6667V11.8333H792.833V0H804.667H816.5H828.333H840.167H852H863.833V11.8333H875.667V23.6667H887.5V35.5H899.333V47.3333V59.1667H887.5V71H899.333V82.8333V94.6667H887.5V106.5H875.667H863.833H852H840.167V94.6667H852H863.833H875.667H887.5V82.8333V71H875.667H863.833H852H840.167V59.1667H852H863.833H875.667H887.5V47.3333V35.5H875.667H863.833H852H840.167H828.333H816.5V47.3333V59.1667V71V82.8333V94.6667V106.5V118.333V130.167Z" fill="black"/>
<path d="M757.333 130.167H769.167V142H757.333H745.5H733.667H721.833H710V130.167H721.833H733.667H745.5H757.333ZM769.167 130.167V118.333H781V130.167H769.167ZM710 130.167H698.167V118.333H686.333V106.5H674.5V94.6667V82.8333H686.333V71H698.167V59.1667H686.333V47.3333H674.5V35.5V23.6667H686.333V11.8333H698.167V0H710H721.833H733.667H745.5H757.333V11.8333H769.167V23.6667H781V35.5H792.833V47.3333V59.1667H781V71H769.167V82.8333H781V94.6667H792.833V106.5V118.333H781V106.5V94.6667H769.167V82.8333H757.333V71H745.5V59.1667H757.333H769.167H781V47.3333V35.5H769.167H757.333H745.5H733.667H721.833V47.3333H710V59.1667V71H721.833V82.8333H733.667V94.6667H745.5V106.5H733.667H721.833H710V118.333V130.167Z" fill="black"/>
<path d="M662.667 130.167H674.5V142H662.667H650.834V130.167H662.667ZM603.5 130.167H615.334V142H603.5H591.667V130.167H603.5ZM674.5 130.167V118.333V106.5H686.334V118.333V130.167H674.5ZM650.834 130.167H639V118.333H650.834V130.167ZM615.334 130.167V118.333V106.5V94.6667H627.167V106.5H639V118.333H627.167V130.167H615.334ZM591.667 130.167H579.834V118.333H568V106.5H556.167V94.6667V82.8333V71V59.1667V47.3333V35.5V23.6667V11.8333H568V0H579.834H591.667H603.5H615.334H627.167H639V11.8333H650.834V23.6667H662.667V35.5H674.5V47.3333H686.334V59.1667V71H674.5V82.8333H662.667V94.6667H674.5V106.5H662.667V94.6667H650.834V82.8333H662.667V71H674.5V59.1667V47.3333H662.667V35.5H650.834H639H627.167H615.334H603.5H591.667V47.3333V59.1667V71V82.8333V94.6667V106.5V118.333V130.167ZM627.167 59.1667H639V71H627.167H615.334V59.1667H627.167Z" fill="black"/>
<path d="M544.334 130.167H556.167V142H544.334H532.5H520.667H508.834H497H485.167V130.167H497H508.834H520.667H532.5H544.334ZM556.167 130.167V118.333V106.5H568V118.333V130.167H556.167ZM485.167 130.167H473.334V118.333H461.5V106.5H449.667V94.6667V82.8333V71V59.1667V47.3333V35.5V23.6667V11.8333H461.5V0H473.334H485.167H497H508.834H520.667H532.5V11.8333H544.334V23.6667H556.167V35.5H568V47.3333V59.1667H556.167V71H568V82.8333V94.6667H556.167V106.5H544.334H532.5H520.667H508.834V94.6667H520.667H532.5H544.334H556.167V82.8333V71H544.334H532.5H520.667H508.834V59.1667H520.667H532.5H544.334H556.167V47.3333V35.5H544.334H532.5H520.667H508.834H497H485.167V47.3333V59.1667V71V82.8333V94.6667V106.5V118.333V130.167Z" fill="black"/>
<path d="M414.167 130.167H426V142H414.167H402.334V130.167H414.167ZM426 130.167V118.333H437.834V130.167H426ZM402.334 130.167H390.5V118.333H402.334V130.167ZM437.834 118.333V106.5V94.6667H449.667V106.5V118.333H437.834ZM390.5 118.333H378.667V106.5H366.834V94.6667H355V82.8333V71H343.167V59.1667V47.3333V35.5V23.6667V11.8333H355V0H366.834H378.667V11.8333H390.5H402.334V0H414.167H426V11.8333H437.834V23.6667H449.667V35.5H461.5V47.3333V59.1667V71V82.8333V94.6667H449.667V82.8333V71V59.1667V47.3333V35.5H437.834H426V47.3333V59.1667V71V82.8333V94.6667H414.167H402.334V82.8333V71V59.1667V47.3333V35.5H390.5H378.667V47.3333V59.1667V71V82.8333V94.6667H390.5V106.5V118.333Z" fill="black"/>
<path d="M331.333 130.167H343.167V142H331.333H319.5V130.167H331.333ZM343.167 130.167V118.333V106.5V94.6667V82.8333V71V59.1667V47.3333V35.5H355V47.3333V59.1667V71V82.8333V94.6667V106.5V118.333V130.167H343.167ZM319.5 130.167H307.667V118.333H295.833V106.5H284V94.6667V82.8333V71V59.1667V47.3333V35.5V23.6667V11.8333H295.833V0H307.667H319.5V11.8333H331.333V23.6667H343.167V35.5H331.333H319.5V47.3333V59.1667V71V82.8333V94.6667V106.5V118.333V130.167Z" fill="black"/>
<path d="M236.667 59.1667V47.3333H224.834V35.5H213H201.167V47.3333V59.1667H213V71H224.834V82.8333V94.6667H213V106.5H201.167V118.333V130.167H213H224.834V142H213H201.167V130.167H189.334V118.333H177.5V106.5H165.667V94.6667V82.8333H177.5V71H189.334V59.1667H177.5V47.3333H165.667V35.5V23.6667V11.8333H177.5V0H189.334H201.167V11.8333H213V23.6667H224.834V11.8333H236.667V0H248.5H260.334V11.8333H272.167V23.6667H284V35.5H295.834V47.3333V59.1667H284V71H272.167V82.8333V94.6667H284V106.5H295.834V118.333V130.167H284V142H272.167H260.334V130.167H272.167H284V118.333V106.5H272.167V94.6667H260.334V82.8333V71H272.167V59.1667H284V47.3333V35.5H272.167H260.334V47.3333H248.5V59.1667H236.667ZM260.334 130.167H248.5V118.333H260.334V130.167ZM224.834 130.167V118.333H236.667V130.167H224.834ZM248.5 118.333H236.667V106.5H248.5V118.333Z" fill="black"/>
<path d="M153.833 130.167H165.667V142H153.833H142V130.167H153.833ZM165.667 130.167V118.333V106.5V94.6667V82.8333V71V59.1667V47.3333V35.5H177.5V47.3333V59.1667V71V82.8333V94.6667V106.5V118.333V130.167H165.667ZM142 130.167H130.167V118.333H118.333V106.5H106.5V94.6667V82.8333V71V59.1667V47.3333V35.5V23.6667V11.8333H118.333V0H130.167H142V11.8333H153.833V23.6667H165.667V35.5H153.833H142V47.3333V59.1667V71V82.8333V94.6667V106.5V118.333V130.167Z" fill="black"/>
<path d="M47.3333 130.167H59.1667V142H47.3333H35.5V130.167H47.3333ZM59.1667 130.167V118.333V106.5V94.6667H71H82.8333H94.6667V106.5H82.8333H71V118.333V130.167H59.1667ZM35.5 130.167H23.6667V118.333H11.8333V106.5H0V94.6667V82.8333V71V59.1667V47.3333V35.5V23.6667V11.8333H11.8333V0H23.6667H35.5H47.3333H59.1667H71V11.8333H82.8333V23.6667H94.6667V35.5H106.5V47.3333H118.333V59.1667V71V82.8333H106.5V94.6667H94.6667V82.8333H106.5V71V59.1667V47.3333H94.6667V35.5H82.8333H71H59.1667H47.3333H35.5V47.3333V59.1667V71V82.8333V94.6667V106.5V118.333V130.167ZM71 59.1667H82.8333V71H71H59.1667V59.1667H71Z" fill="black"/>
</svg>
